<mxfile host="app.diagrams.net" modified="2024-03-22T06:40:21.582Z" agent="Mozilla/5.0 (Windows NT 10.0; Win64; x64) AppleWebKit/537.36 (KHTML, like Gecko) Chrome/123.0.0.0 Safari/537.36" etag="WyD2QSoNbAMuu4DVYsI7" version="24.0.7" type="github">
  <diagram name="ページ1" id="b3ed3xPqWTrQo_jcIVE4">
    <mxGraphModel dx="1674" dy="818" grid="1" gridSize="10" guides="1" tooltips="1" connect="1" arrows="1" fold="1" page="1" pageScale="1" pageWidth="827" pageHeight="1169" math="0" shadow="0">
      <root>
        <mxCell id="0" />
        <mxCell id="1" parent="0" />
        <mxCell id="PVm0V9DkdxH5yci86PIa-1" value="アンカリング(数字)" style="swimlane;whiteSpace=wrap;html=1;" vertex="1" parent="1">
          <mxGeometry x="240" y="40.5" width="170" height="280" as="geometry" />
        </mxCell>
        <mxCell id="PVm0V9DkdxH5yci86PIa-2" value="釘を刺す" style="rounded=1;whiteSpace=wrap;html=1;shadow=0;labelBackgroundColor=none;strokeColor=none;strokeWidth=3;fillColor=#B266FF;fontFamily=Helvetica;fontSize=14;fontColor=#FFFFFF;align=center;spacing=5;fontStyle=1;arcSize=7;perimeterSpacing=2;" vertex="1" parent="PVm0V9DkdxH5yci86PIa-1">
          <mxGeometry x="10" y="207" width="150" height="60" as="geometry" />
        </mxCell>
        <mxCell id="PVm0V9DkdxH5yci86PIa-3" style="edgeStyle=orthogonalEdgeStyle;rounded=0;orthogonalLoop=1;jettySize=auto;html=1;entryX=0.5;entryY=0;entryDx=0;entryDy=0;" edge="1" parent="PVm0V9DkdxH5yci86PIa-1" source="PVm0V9DkdxH5yci86PIa-4" target="PVm0V9DkdxH5yci86PIa-2">
          <mxGeometry relative="1" as="geometry" />
        </mxCell>
        <mxCell id="PVm0V9DkdxH5yci86PIa-4" value="初めに出した見積もりが誤りでもそれを基準に見積もること&lt;br&gt;&lt;br&gt;住居の買い手が最初に到着した住居の価格を基準に考えてしまうこと" style="rounded=1;whiteSpace=wrap;html=1;shadow=0;labelBackgroundColor=none;strokeColor=none;strokeWidth=3;fillColor=#CC99FF;fontFamily=Helvetica;fontSize=14;fontColor=#FFFFFF;align=center;spacing=5;arcSize=7;perimeterSpacing=2;" vertex="1" parent="PVm0V9DkdxH5yci86PIa-1">
          <mxGeometry x="10" y="32" width="150" height="148" as="geometry" />
        </mxCell>
        <mxCell id="PVm0V9DkdxH5yci86PIa-5" value="デフォルト戦略" style="swimlane;whiteSpace=wrap;html=1;" vertex="1" parent="1">
          <mxGeometry x="40" y="40" width="170" height="280" as="geometry" />
        </mxCell>
        <mxCell id="PVm0V9DkdxH5yci86PIa-6" value="デフォルト変更" style="rounded=1;whiteSpace=wrap;html=1;shadow=0;labelBackgroundColor=none;strokeColor=none;strokeWidth=3;fillColor=#B266FF;fontFamily=Helvetica;fontSize=14;fontColor=#FFFFFF;align=center;spacing=5;fontStyle=1;arcSize=7;perimeterSpacing=2;" vertex="1" parent="PVm0V9DkdxH5yci86PIa-5">
          <mxGeometry x="10" y="207" width="150" height="60" as="geometry" />
        </mxCell>
        <mxCell id="PVm0V9DkdxH5yci86PIa-7" style="edgeStyle=orthogonalEdgeStyle;rounded=0;orthogonalLoop=1;jettySize=auto;html=1;entryX=0.5;entryY=0;entryDx=0;entryDy=0;" edge="1" parent="PVm0V9DkdxH5yci86PIa-5" source="PVm0V9DkdxH5yci86PIa-8" target="PVm0V9DkdxH5yci86PIa-6">
          <mxGeometry relative="1" as="geometry" />
        </mxCell>
        <mxCell id="PVm0V9DkdxH5yci86PIa-8" value="Google社内のカフェテリアで、ちょうど目線の高さにある商品を&lt;br style=&quot;border-color: var(--border-color);&quot;&gt;炭酸飲料から水に変えたところ、水を選ぶ方が47%も増加した&lt;br style=&quot;border-color: var(--border-color);&quot;&gt;&lt;br style=&quot;border-color: var(--border-color);&quot;&gt;Kuang 2012" style="rounded=1;whiteSpace=wrap;html=1;shadow=0;labelBackgroundColor=none;strokeColor=none;strokeWidth=3;fillColor=#CC99FF;fontFamily=Helvetica;fontSize=14;fontColor=#FFFFFF;align=center;spacing=5;arcSize=7;perimeterSpacing=2;" vertex="1" parent="PVm0V9DkdxH5yci86PIa-5">
          <mxGeometry x="10" y="32" width="150" height="148" as="geometry" />
        </mxCell>
        <mxCell id="PVm0V9DkdxH5yci86PIa-9" value="注意バイアス(ネットワーク)" style="swimlane;whiteSpace=wrap;html=1;" vertex="1" parent="1">
          <mxGeometry x="440" y="40" width="170" height="280" as="geometry" />
        </mxCell>
        <mxCell id="PVm0V9DkdxH5yci86PIa-10" value="マジカルバナナ" style="rounded=1;whiteSpace=wrap;html=1;shadow=0;labelBackgroundColor=none;strokeColor=none;strokeWidth=3;fillColor=#B266FF;fontFamily=Helvetica;fontSize=14;fontColor=#FFFFFF;align=center;spacing=5;fontStyle=1;arcSize=7;perimeterSpacing=2;" vertex="1" parent="PVm0V9DkdxH5yci86PIa-9">
          <mxGeometry x="10" y="207" width="150" height="60" as="geometry" />
        </mxCell>
        <mxCell id="PVm0V9DkdxH5yci86PIa-11" style="edgeStyle=orthogonalEdgeStyle;rounded=0;orthogonalLoop=1;jettySize=auto;html=1;entryX=0.5;entryY=0;entryDx=0;entryDy=0;" edge="1" parent="PVm0V9DkdxH5yci86PIa-9" source="PVm0V9DkdxH5yci86PIa-12" target="PVm0V9DkdxH5yci86PIa-10">
          <mxGeometry relative="1" as="geometry" />
        </mxCell>
        <mxCell id="PVm0V9DkdxH5yci86PIa-12" value="内面の状態によって周囲の注意の仕方が変わってしまうこと&lt;br&gt;&lt;br&gt;薬物依存の患者は望む望まないにかかわらず、薬物に関連する情報を選択する" style="rounded=1;whiteSpace=wrap;html=1;shadow=0;labelBackgroundColor=none;strokeColor=none;strokeWidth=3;fillColor=#CC99FF;fontFamily=Helvetica;fontSize=14;fontColor=#FFFFFF;align=center;spacing=5;arcSize=7;perimeterSpacing=2;" vertex="1" parent="PVm0V9DkdxH5yci86PIa-9">
          <mxGeometry x="10" y="32" width="150" height="148" as="geometry" />
        </mxCell>
        <mxCell id="PVm0V9DkdxH5yci86PIa-13" value="質問の順番" style="swimlane;whiteSpace=wrap;html=1;startSize=23;" vertex="1" parent="1">
          <mxGeometry x="40" y="340.5" width="370" height="279.5" as="geometry" />
        </mxCell>
        <mxCell id="PVm0V9DkdxH5yci86PIa-14" value="現状維持" style="rounded=1;whiteSpace=wrap;html=1;shadow=0;labelBackgroundColor=none;strokeColor=none;strokeWidth=3;fillColor=#1699d3;fontFamily=Helvetica;fontSize=14;fontColor=#FFFFFF;align=center;spacing=5;fontStyle=1;arcSize=7;perimeterSpacing=2;" vertex="1" parent="PVm0V9DkdxH5yci86PIa-13">
          <mxGeometry x="210" y="213" width="150" height="60" as="geometry" />
        </mxCell>
        <mxCell id="PVm0V9DkdxH5yci86PIa-15" style="edgeStyle=orthogonalEdgeStyle;rounded=0;orthogonalLoop=1;jettySize=auto;html=1;entryX=0.5;entryY=0;entryDx=0;entryDy=0;" edge="1" parent="PVm0V9DkdxH5yci86PIa-13" source="PVm0V9DkdxH5yci86PIa-16" target="PVm0V9DkdxH5yci86PIa-14">
          <mxGeometry relative="1" as="geometry" />
        </mxCell>
        <mxCell id="PVm0V9DkdxH5yci86PIa-16" value="無作為に選んだ人に&lt;br style=&quot;border-color: var(--border-color);&quot;&gt;１、「今幸せか？」を問いかける&lt;br style=&quot;border-color: var(--border-color);&quot;&gt;２、「デートの頻度」を問いかける&lt;br style=&quot;border-color: var(--border-color);&quot;&gt;二つの数字に相関はなかった。" style="rounded=1;whiteSpace=wrap;html=1;shadow=0;labelBackgroundColor=none;strokeColor=none;strokeWidth=3;fillColor=#64bbe2;fontFamily=Helvetica;fontSize=14;fontColor=#FFFFFF;align=center;spacing=5;arcSize=7;perimeterSpacing=2;" vertex="1" parent="PVm0V9DkdxH5yci86PIa-13">
          <mxGeometry x="210" y="31.5" width="150" height="149.5" as="geometry" />
        </mxCell>
        <mxCell id="PVm0V9DkdxH5yci86PIa-17" value="言語" style="text;html=1;strokeColor=none;fillColor=none;align=center;verticalAlign=middle;whiteSpace=wrap;rounded=0;" vertex="1" parent="PVm0V9DkdxH5yci86PIa-13">
          <mxGeometry x="160" y="228" width="60" height="30" as="geometry" />
        </mxCell>
        <mxCell id="PVm0V9DkdxH5yci86PIa-18" value="答えるのに苦労する質問は後に回すことで&lt;br style=&quot;border-color: var(--border-color);&quot;&gt;答えをコントロール" style="rounded=1;whiteSpace=wrap;html=1;shadow=0;labelBackgroundColor=none;strokeColor=none;strokeWidth=3;fillColor=#B266FF;fontFamily=Helvetica;fontSize=14;fontColor=#FFFFFF;align=center;spacing=5;fontStyle=1;arcSize=7;perimeterSpacing=2;" vertex="1" parent="PVm0V9DkdxH5yci86PIa-13">
          <mxGeometry x="10" y="213" width="150" height="60" as="geometry" />
        </mxCell>
        <mxCell id="PVm0V9DkdxH5yci86PIa-19" style="edgeStyle=orthogonalEdgeStyle;rounded=0;orthogonalLoop=1;jettySize=auto;html=1;" edge="1" parent="PVm0V9DkdxH5yci86PIa-13" source="PVm0V9DkdxH5yci86PIa-20" target="PVm0V9DkdxH5yci86PIa-18">
          <mxGeometry relative="1" as="geometry" />
        </mxCell>
        <mxCell id="PVm0V9DkdxH5yci86PIa-20" value="無作為に選んだ人に&lt;br style=&quot;border-color: var(--border-color);&quot;&gt;１、「デートの頻度」を問いかける&lt;br style=&quot;border-color: var(--border-color);&quot;&gt;２，「今幸せか？」を問いかける&lt;br style=&quot;border-color: var(--border-color);&quot;&gt;デートの頻度に比例して幸せ度合が増加した" style="rounded=1;whiteSpace=wrap;html=1;shadow=0;labelBackgroundColor=none;strokeColor=none;strokeWidth=3;fillColor=#CC99FF;fontFamily=Helvetica;fontSize=14;fontColor=#FFFFFF;align=center;spacing=5;arcSize=7;perimeterSpacing=2;" vertex="1" parent="PVm0V9DkdxH5yci86PIa-13">
          <mxGeometry x="10" y="33" width="150" height="148" as="geometry" />
        </mxCell>
        <mxCell id="PVm0V9DkdxH5yci86PIa-21" value="行動の一貫性" style="swimlane;whiteSpace=wrap;html=1;" vertex="1" parent="1">
          <mxGeometry x="440" y="340" width="170" height="280" as="geometry" />
        </mxCell>
        <mxCell id="PVm0V9DkdxH5yci86PIa-22" style="edgeStyle=orthogonalEdgeStyle;rounded=0;orthogonalLoop=1;jettySize=auto;html=1;entryX=0.5;entryY=0;entryDx=0;entryDy=0;" edge="1" parent="PVm0V9DkdxH5yci86PIa-21" source="PVm0V9DkdxH5yci86PIa-23" target="PVm0V9DkdxH5yci86PIa-24">
          <mxGeometry relative="1" as="geometry" />
        </mxCell>
        <mxCell id="PVm0V9DkdxH5yci86PIa-23" value="質問をしてしまった" style="rounded=1;whiteSpace=wrap;html=1;shadow=0;labelBackgroundColor=none;strokeColor=none;strokeWidth=3;fillColor=#FCAD90;fontFamily=Helvetica;fontSize=14;fontColor=#FFFFFF;align=center;spacing=5;arcSize=7;perimeterSpacing=2;" vertex="1" parent="PVm0V9DkdxH5yci86PIa-21">
          <mxGeometry x="10" y="32" width="150" height="148" as="geometry" />
        </mxCell>
        <mxCell id="PVm0V9DkdxH5yci86PIa-24" value="自分の意図に沿わない行動をした後、&lt;br style=&quot;border-color: var(--border-color);&quot;&gt;その行動に合う認識にすり替える" style="rounded=1;whiteSpace=wrap;html=1;shadow=0;labelBackgroundColor=none;strokeColor=none;strokeWidth=3;fillColor=#e85642;fontFamily=Helvetica;fontSize=14;fontColor=#FFFFFF;align=center;spacing=5;fontStyle=1;arcSize=7;perimeterSpacing=2;" vertex="1" parent="PVm0V9DkdxH5yci86PIa-21">
          <mxGeometry x="10" y="200" width="150" height="74.5" as="geometry" />
        </mxCell>
        <mxCell id="PVm0V9DkdxH5yci86PIa-25" value="ラベリング" style="swimlane;whiteSpace=wrap;html=1;" vertex="1" parent="1">
          <mxGeometry x="640" y="340" width="170" height="280" as="geometry" />
        </mxCell>
        <mxCell id="PVm0V9DkdxH5yci86PIa-26" value="マジカルバナナ" style="rounded=1;whiteSpace=wrap;html=1;shadow=0;labelBackgroundColor=none;strokeColor=none;strokeWidth=3;fillColor=#B266FF;fontFamily=Helvetica;fontSize=14;fontColor=#FFFFFF;align=center;spacing=5;fontStyle=1;arcSize=7;perimeterSpacing=2;" vertex="1" parent="PVm0V9DkdxH5yci86PIa-25">
          <mxGeometry x="10" y="207" width="150" height="60" as="geometry" />
        </mxCell>
        <mxCell id="PVm0V9DkdxH5yci86PIa-27" style="edgeStyle=orthogonalEdgeStyle;rounded=0;orthogonalLoop=1;jettySize=auto;html=1;entryX=0.5;entryY=0;entryDx=0;entryDy=0;" edge="1" parent="PVm0V9DkdxH5yci86PIa-25" source="PVm0V9DkdxH5yci86PIa-28" target="PVm0V9DkdxH5yci86PIa-26">
          <mxGeometry relative="1" as="geometry" />
        </mxCell>
        <mxCell id="PVm0V9DkdxH5yci86PIa-28" value="行動の一貫性の原理を&lt;div&gt;応用した技術の一つ。&lt;/div&gt;&lt;div&gt;相手の認識するレッテルを利用し、その通りに動かす&lt;/div&gt;" style="rounded=1;whiteSpace=wrap;html=1;shadow=0;labelBackgroundColor=none;strokeColor=none;strokeWidth=3;fillColor=#CC99FF;fontFamily=Helvetica;fontSize=14;fontColor=#FFFFFF;align=center;spacing=5;arcSize=7;perimeterSpacing=2;" vertex="1" parent="PVm0V9DkdxH5yci86PIa-25">
          <mxGeometry x="10" y="32" width="150" height="148" as="geometry" />
        </mxCell>
      </root>
    </mxGraphModel>
  </diagram>
</mxfile>
